<svg width="44" height="40" viewBox="0 0 44 40" fill="none" xmlns="http://www.w3.org/2000/svg">
<path d="M34.1681 17.5972C28.8302 8.35084 23.0735 1.29031 21.7594 1.45702C20.4455 1.29031 14.6888 8.35084 9.35099 17.5972C4.01272 26.8421 1.05651 34.874 1.85717 35.9292C2.15305 36.6347 5.1916 37.4421 9.76323 37.9988C11.1243 38.1648 12.6218 38.3004 14.2218 38.4194C17.6434 38.6755 20.5651 38.3314 22.585 35.8567C25.0663 32.8163 25.072 27.7784 22.3104 23.5545C22.1691 23.3388 21.8403 23.4822 21.8751 23.7378C22.0433 24.9702 22.0952 26.6621 21.7445 28.5885C21.3359 30.832 19.6951 32.5897 17.4563 32.5897C15.6247 32.5897 14.0609 31.4459 13.4391 29.8337C12.7827 28.1297 13.4019 26.0752 14.1457 24.0871C16.1537 18.7126 20.1311 14.016 21.1358 12.9694C21.5238 12.5662 21.9681 12.5376 22.3834 12.9694C23.7429 14.3853 30.547 22.4851 30.547 29.9038C30.547 33.4681 28.4372 36.5355 25.3984 37.9341C25.0463 38.096 25.1516 38.6294 25.5392 38.6161C34.4247 38.3142 41.2114 37.0022 41.6619 35.9292C42.4626 34.874 39.5064 26.8421 34.1681 17.5972Z" fill="#D93A49"/>
</svg>
