<svg width="256" height="260" viewBox="0 0 256 260" fill="none" xmlns="http://www.w3.org/2000/svg">
<path d="M138.452 109.677C140.884 112.112 140.927 116.012 138.549 118.386C136.17 120.76 132.271 120.71 129.84 118.274C127.408 115.839 127.365 111.939 129.743 109.565C132.122 107.191 136.021 107.241 138.452 109.677Z" fill="#D0DBEA"/>
<path d="M121.285 107.212C123.907 109.838 123.953 114.043 121.389 116.603C118.824 119.163 114.619 119.11 111.998 116.483C109.376 113.857 109.329 109.652 111.894 107.092C114.458 104.532 118.663 104.585 121.285 107.212Z" fill="#D0DBEA"/>
<path fill-rule="evenodd" clip-rule="evenodd" d="M71.6381 75.0186C71.6381 75.0186 71.6382 75.0184 70.9455 74.6023C70.2527 74.1863 70.253 74.1857 70.2535 74.185L70.2548 74.1828L70.2594 74.1752L70.2761 74.1479C70.2905 74.1243 70.3115 74.0902 70.3392 74.0458C70.3945 73.9571 70.4764 73.8276 70.5849 73.6605C70.8017 73.3264 71.1248 72.8421 71.5542 72.2341C72.4128 71.0181 73.6969 69.3062 75.4068 67.31C78.8253 63.319 83.9534 58.1823 90.7942 53.6005C104.498 44.4222 125.048 37.4941 152.375 46.4019L152.375 46.402C179.766 55.3463 190.213 76.8221 193.802 95.963C196.719 111.516 195.13 125.604 194.423 130.385C194.522 130.352 194.622 130.32 194.725 130.288C195.696 129.99 196.955 129.718 198.21 129.484C200.326 129.091 202.516 128.793 203.44 128.667C203.612 128.644 203.74 128.626 203.815 128.615C217.921 126.531 230.205 132.059 239.191 141.283C248.166 150.495 253.885 163.42 254.918 176.255C257.489 208.176 232.789 230.647 204.975 240.276L204.447 238.748C231.935 229.232 255.793 207.241 253.307 176.384C252.304 163.912 246.737 151.344 238.034 142.411C229.341 133.489 217.554 128.218 204.052 130.214L204.05 130.214C203.965 130.227 203.826 130.246 203.642 130.271C202.699 130.399 200.573 130.689 198.505 131.073C197.267 131.303 196.08 131.562 195.199 131.833C194.754 131.97 194.423 132.099 194.21 132.212C194.104 132.269 194.057 132.306 194.045 132.317C194.059 132.303 194.117 132.234 194.141 132.107C194.141 132.109 194.141 132.11 194.141 132.111L192.554 131.802C192.554 131.801 192.555 131.799 192.555 131.798C192.556 131.792 192.562 131.759 192.573 131.7C192.578 131.673 192.584 131.642 192.59 131.605C192.613 131.476 192.646 131.286 192.686 131.037C192.767 130.541 192.879 129.812 193.001 128.88C193.245 127.015 193.534 124.336 193.711 121.07C194.067 114.534 193.977 105.664 192.214 96.2609C188.689 77.4639 178.507 56.6354 151.874 47.9385C125.091 39.208 105.052 45.996 91.6935 54.9433C85.0032 59.4243 79.9822 64.4528 76.6342 68.3614C74.9609 70.3149 73.7075 71.9863 72.8744 73.1663C72.4579 73.7561 72.1466 74.2229 71.9405 74.5404C71.8375 74.6992 71.7608 74.8206 71.7104 74.9013C71.6852 74.9417 71.6666 74.9719 71.6545 74.9916L71.6414 75.0131L71.6386 75.0178L71.6381 75.0186ZM194.045 132.318C194.045 132.317 194.045 132.317 194.045 132.317C194.042 132.321 194.041 132.321 194.045 132.318Z" fill="#D0DBEA"/>
<path fill-rule="evenodd" clip-rule="evenodd" d="M198.966 191.461C202.952 201.278 205.212 212.581 205.558 223.829C205.635 213.589 204.17 202.274 199.536 191.576C198.061 188.178 196.281 184.919 194.22 181.84C194.212 181.817 194.197 181.797 194.177 181.782C187.819 172.279 178.203 163.842 164.001 157.82L152.139 154.365C152.139 154.365 154.017 158.575 151.399 164.023C148.781 169.472 142.334 176.213 135.483 174.623C128.632 173.034 121.101 169.385 122.236 161.987C123.371 154.589 123.86 151.96 123.86 151.96L83.3456 152.355C87.6882 158.198 93.6981 171.626 81.5573 193.33L89.0992 193.042C89.0992 193.042 84.0655 240.405 95.4778 258.772C95.5584 258.918 95.6477 259.06 95.737 259.186L160.171 258.918H164.648C164.667 258.871 164.681 258.822 164.692 258.772H149.112C147.335 258.77 145.632 258.062 144.378 256.802C143.612 256.036 143.043 255.095 142.722 254.06C142.523 253.415 142.426 252.743 142.434 252.068C142.441 248.366 145.437 245.365 149.138 245.352H187.68C187.871 245.352 188.072 245.352 188.256 245.375C188.29 245.381 188.324 245.381 188.357 245.375H188.415C188.37 245.383 188.325 245.39 188.28 245.397L188.28 245.397C188.201 245.409 188.122 245.421 188.043 245.441H188.023C188.21 245.445 188.396 245.438 188.582 245.418C188.887 245.399 189.191 245.364 189.492 245.312C189.662 245.286 189.829 245.254 189.996 245.217L190.171 245.185C190.321 245.153 190.47 245.111 190.619 245.069C190.683 245.05 190.747 245.032 190.811 245.015C191.021 244.949 191.222 244.871 191.424 244.793C191.626 244.716 191.827 244.635 192.029 244.534C192.05 244.533 192.07 244.526 192.086 244.514C192.265 244.425 192.443 244.333 192.611 244.243C192.969 244.044 193.314 243.82 193.641 243.572L193.929 243.339C194.185 243.138 194.427 242.92 194.655 242.688C194.869 242.476 195.071 242.252 195.26 242.017L195.29 241.979C195.47 241.756 195.649 241.534 195.81 241.289C195.954 241.076 196.098 240.854 196.213 240.629C196.291 240.494 196.369 240.341 196.435 240.203C196.439 240.198 196.443 240.193 196.447 240.188C196.465 240.163 196.481 240.143 196.481 240.114C196.539 240.002 196.591 239.886 196.636 239.768C196.775 239.462 196.895 239.147 196.996 238.827C197.086 238.539 197.163 238.233 197.23 237.931C197.264 237.776 197.296 237.617 197.319 237.462C197.365 237.174 197.397 236.886 197.42 236.578C197.42 236.488 197.425 236.396 197.431 236.304C197.437 236.212 197.443 236.12 197.443 236.03C197.445 235.07 197.301 234.114 197.016 233.197C196.979 233.049 196.931 232.903 196.872 232.762C196.826 232.612 196.769 232.466 196.703 232.324C196.224 231.208 195.54 230.191 194.687 229.326C194.584 229.216 194.475 229.111 194.361 229.013C194.032 228.702 193.677 228.421 193.299 228.172C193.251 228.141 193.203 228.11 193.155 228.077C193.079 228.026 193.001 227.974 192.919 227.927C191.878 227.277 190.718 226.843 189.506 226.651C189.036 226.571 188.56 226.53 188.084 226.527L182.085 226.493L173.311 226.45H173.049C172.789 226.427 172.533 226.415 172.262 226.415H170.944C171.033 217.92 169.504 211.495 167.427 206.718L167.428 206.718C167.463 206.649 177.43 187.05 198.966 191.461ZM199.735 258.76C199.735 258.76 200.328 257.116 201.146 254.239C200.595 255.786 199.983 257.293 199.309 258.76H199.735ZM187.68 258.76C187.937 258.76 188.19 258.752 188.443 258.729C188.411 258.732 188.38 258.735 188.351 258.737C188.149 258.754 188.07 258.76 188.901 258.76H187.68Z" fill="#2E3E5C"/>
<path d="M125.821 140.695C125.821 140.695 124.848 146.604 123.84 151.954C120.96 151.986 118.081 152.009 115.233 152.032C113.793 143.929 115.356 137.582 117.214 133.351C119.555 138.69 123.091 140.314 125.821 140.695Z" fill="#D93A49"/>
<path d="M125 86.5L131.5 83L132.5 83.5L132 84.5L130 85.5L126.5 88L125 89.5H123V88.5L125 86.5Z" fill="#D93A49"/>
<path d="M173.152 162.016C167.297 158.863 161.056 156.487 154.587 154.946L152.467 154.581C152.467 154.581 150.889 150.992 150.881 150.981C150.14 149.101 148.914 146.604 148.534 144.623C148.071 142.282 147.958 139.886 148.2 137.513C148.614 133.988 150.256 126.532 153.222 124.182C155.695 122.236 156.715 122.645 158.117 119.601C159.125 117.429 159.534 113.781 157.576 112.18C155.405 110.423 154.477 111.316 151.88 111.586C142.008 112.566 136.367 105.461 132.738 97.2513C132.162 95.918 131.563 94.5098 130.622 93.3752C129.542 92.0678 128.047 91.7741 126.823 90.7172C126.302 90.2622 125.945 89.5192 126.196 88.8742C126.343 88.566 126.558 88.2945 126.823 88.0794C129.136 85.9487 131.914 84.386 134.936 83.515C139.715 82.1331 144.766 81.9756 149.622 83.0572C154.69 84.736 159.246 87.9152 162.313 92.7733C166.543 99.4859 167.563 106.449 165.193 113.389C162.765 120.496 160.055 128.845 164.617 135.684C170.69 144.769 174.35 151.16 173.152 162.016Z" fill="#D93A49" stroke="#2E3E5C" stroke-width="1.5"/>
<path fill-rule="evenodd" clip-rule="evenodd" d="M115.483 151.222C118.251 151.2 121.047 151.177 123.843 151.146L123.86 152.762C121.062 152.793 118.265 152.816 115.497 152.838L115.251 152.84L115.248 152.84C113.315 152.85 111.39 152.857 109.471 152.864C89.831 152.932 70.9 152.999 51.1432 156.542L50.8579 154.951C70.7608 151.382 89.8314 151.315 109.451 151.247C111.374 151.241 113.303 151.234 115.239 151.224C115.239 151.224 115.24 151.224 115.24 151.224L115.483 151.222Z" fill="#2E3E5C"/>
<path fill-rule="evenodd" clip-rule="evenodd" d="M154.391 155.73C153.582 155.528 152.771 155.34 151.951 155.16L152.298 153.581C153.13 153.764 153.954 153.955 154.78 154.162C157.998 154.94 161.167 155.91 164.268 157.069C167.419 158.241 170.481 159.637 173.433 161.246C173.485 161.263 173.536 161.287 173.584 161.316C178.279 163.862 182.619 167.015 186.492 170.694L186.496 170.698L186.499 170.701C189.731 173.85 192.527 177.416 194.815 181.304C194.856 181.354 194.891 181.409 194.92 181.466C196.766 184.568 198.369 187.809 199.715 191.158C203.74 201.072 206.017 212.47 206.365 223.804L206.365 223.805C206.682 234.509 205.273 245.189 201.921 254.511C201.365 256.073 200.747 257.595 200.067 259.077C200.037 259.151 200.006 259.217 199.985 259.261L199.982 259.268C199.954 259.326 199.942 259.352 199.933 259.375L198.425 258.795C198.459 258.706 198.497 258.626 198.521 258.577C198.548 258.52 198.56 258.493 198.569 258.47L198.578 258.446L198.589 258.423C199.252 256.978 199.856 255.493 200.399 253.968L200.4 253.965C203.671 244.869 205.061 234.395 204.75 223.854C204.407 212.692 202.163 201.485 198.217 191.765L198.216 191.762C196.91 188.511 195.355 185.365 193.567 182.352L193.549 182.339L193.465 182.197C191.243 178.405 188.522 174.93 185.375 171.862C181.733 168.403 177.666 165.422 173.274 162.989L173.265 162.996L172.764 162.722C169.848 161.126 166.82 159.743 163.704 158.583L163.703 158.583C160.661 157.447 157.553 156.495 154.397 155.732L154.394 155.731L154.391 155.73Z" fill="#2E3E5C"/>
<path fill-rule="evenodd" clip-rule="evenodd" d="M165.471 258.924C165.452 259.017 165.425 259.108 165.391 259.197L164.727 258.941L163.829 258.941V258.757L163.883 258.617C163.885 258.61 163.887 258.603 163.889 258.596L165.387 258.907H165.445V258.919L165.471 258.924Z" fill="#2E3E5C"/>
<path fill-rule="evenodd" clip-rule="evenodd" d="M156.684 194.909C156.684 194.909 156.684 194.909 157.037 194.182C157.39 193.456 157.391 193.456 157.391 193.456L157.392 193.456L157.394 193.457L157.401 193.46C157.405 193.463 157.412 193.466 157.42 193.47C157.435 193.478 157.457 193.489 157.484 193.503C157.539 193.532 157.616 193.574 157.713 193.629C157.909 193.74 158.186 193.906 158.529 194.134C159.214 194.59 160.161 195.295 161.238 196.302C163.391 198.319 166.056 201.545 168.163 206.408C170.282 211.297 171.836 217.834 171.746 226.431V226.453L171.746 226.456C171.699 231.939 170.976 238.252 169.306 245.51L168.694 245.369H167.711V245.237L167.731 245.148C169.378 237.991 170.084 231.796 170.13 226.446V226.422L170.13 226.418C170.218 218.027 168.702 211.716 166.68 207.051C164.669 202.411 162.142 199.363 160.133 197.482C159.128 196.541 158.251 195.891 157.633 195.479C157.324 195.273 157.079 195.127 156.916 195.035C156.834 194.988 156.773 194.955 156.733 194.934C156.714 194.924 156.7 194.917 156.691 194.913L156.683 194.909L156.684 194.909ZM156.683 194.908C156.683 194.908 156.683 194.909 156.683 194.909L156.683 194.908Z" fill="#2E3E5C"/>
<path fill-rule="evenodd" clip-rule="evenodd" d="M43.3108 63.7076C42.7042 64.5336 41.9578 65.991 41.2169 67.8009C40.4817 69.597 39.773 71.6882 39.2291 73.7462L37.6666 73.3332C38.2286 71.2069 38.9597 69.0491 39.7212 67.1887C40.4766 65.3433 41.2833 63.7374 42.0098 62.7489L42.0122 62.7455L42.0122 62.7456C44.1091 59.9228 47.0813 56.8782 51.066 57.1513C52.3147 57.2326 53.5958 57.6195 54.599 58.375C55.6227 59.1461 56.3399 60.2937 56.4011 61.7979L56.4012 61.8001L56.4013 61.8022C56.4579 63.4038 55.6504 65.0061 54.8453 66.3944C54.6201 66.783 54.3947 67.1559 54.1772 67.5158C53.5663 68.5267 53.0175 69.435 52.706 70.2985C51.8779 72.6348 51.5123 75.3267 51.9373 77.7209C52.3243 79.9009 54.3255 81.6936 56.5547 82.1876L56.5702 82.191L56.5856 82.195C57.3153 82.3871 58.0911 82.284 58.7451 81.9083C59.6323 81.3394 60.0653 80.2546 60.2207 78.8174C60.3433 77.6836 60.2794 76.4959 60.2216 75.4223C60.206 75.1338 60.191 74.8535 60.18 74.5847C60.18 74.5842 60.18 74.5837 60.18 74.5832L60.9874 74.5505L60.18 74.5848C60.18 74.5847 60.18 74.5847 60.18 74.5847C60.0678 71.9437 60.0066 68.4373 62.6819 66.2917L62.682 66.2916C63.775 65.4154 65.1194 65.2988 66.3078 65.5837C67.4873 65.8666 68.5966 66.5592 69.3358 67.4426C69.3357 67.4423 69.3355 67.4421 69.3353 67.4419L68.7166 67.9617L69.3364 67.4432C69.3362 67.443 69.336 67.4428 69.3358 67.4426C70.5484 68.8864 71.1573 70.6618 71.4832 72.4331C71.7987 74.1482 71.8595 75.9268 71.9123 77.4764C71.914 77.5239 71.9156 77.5713 71.9172 77.6185L71.9172 77.6188C72.2464 87.3442 70.5203 96.7478 64.7937 105.025C64.794 105.025 64.7943 105.025 64.7945 105.024L64.1292 104.566L64.7937 105.025C64.4356 105.545 64.0787 106.055 63.7259 106.559C61.2009 110.166 58.8905 113.467 57.905 117.799L57.905 117.799C55.356 128.99 54.4087 137.731 53.3387 147.604C52.8903 151.741 52.4204 156.077 51.802 160.875L50.1991 160.669C50.8088 155.938 51.2751 151.636 51.722 147.513C52.7966 137.6 53.7584 128.727 56.3291 117.44L57.1171 117.619L56.3292 117.44C56.3292 117.44 56.3291 117.44 56.3291 117.44C57.3898 112.778 59.8956 109.205 62.4104 105.618C62.7627 105.116 63.1151 104.613 63.4638 104.107L63.4646 104.106C68.9343 96.1997 70.6236 87.1731 70.302 77.6735L70.302 77.6739L71.1096 77.6462L70.302 77.6735L70.2986 77.575C70.2445 75.9954 70.1872 74.321 69.8937 72.7255C69.5947 71.1004 69.0619 69.6292 68.0978 68.4814L68.0967 68.4802C67.5833 67.8664 66.7778 67.3584 65.931 67.1554C65.0928 66.9544 64.2991 67.0667 63.6931 67.5525L63.1887 66.9236L63.693 67.5526C63.693 67.5526 63.693 67.5525 63.6931 67.5525C61.7436 69.116 61.6766 71.7375 61.7948 74.5161L61.7948 74.5177C61.8041 74.7461 61.8178 74.9976 61.8325 75.2666C61.8914 76.3482 61.9658 77.7122 61.8275 78.9911C61.6554 80.583 61.1314 82.3111 59.5966 83.2821L59.5838 83.2902L59.5708 83.2978C58.5488 83.8921 57.3338 84.0588 56.1899 83.7621C56.195 83.7632 56.2 83.7643 56.205 83.7655L56.3799 82.9765L56.1742 83.758C56.1794 83.7593 56.1847 83.7607 56.1899 83.7621C53.46 83.1512 50.868 80.9438 50.346 78.0034C49.8612 75.2724 50.2843 72.292 51.1835 69.7564L51.1849 69.7525L51.1849 69.7525C51.5557 68.7234 52.2295 67.6096 52.8661 66.5574C53.0671 66.2252 53.2644 65.8991 53.4472 65.5837C54.2622 64.1783 54.8237 62.9462 54.7862 61.8616C54.7862 61.8623 54.7863 61.8629 54.7863 61.8636L55.5937 61.8308L54.7861 61.8593C54.7861 61.8601 54.7862 61.8608 54.7862 61.8616C54.7461 60.8903 54.3029 60.1753 53.6266 59.666C52.9297 59.1411 51.9711 58.8296 50.9597 58.7639L50.9567 58.7637C47.9047 58.5539 45.4063 60.8873 43.3108 63.7076Z" fill="#2E3E5C"/>
<path fill-rule="evenodd" clip-rule="evenodd" d="M27.4329 95.686L27.4301 95.6803C27.4269 95.6733 27.4213 95.6615 27.4139 95.6452C27.399 95.6126 27.3767 95.562 27.3494 95.4963C27.2948 95.3645 27.2217 95.1743 27.1509 94.9475C27.0056 94.4817 26.8874 93.916 26.9195 93.3994C26.9507 92.8982 27.1144 92.5161 27.4644 92.2566C27.8395 91.9784 28.5765 91.7294 29.9951 91.8505C33.0847 92.1237 36.1937 93.4441 38.8605 95.1396C39.9066 95.8056 41.1762 96.7528 42.0555 97.8502C42.9371 98.9503 43.3184 100.054 42.9427 101.142M27.4329 95.686L27.4331 95.6866L27.4333 95.6869L27.4336 95.6874L27.4434 95.7074L28.9446 99.2896C30.45 102.893 30.6929 106.899 29.6337 110.658C29.6336 110.659 29.6335 110.659 29.6334 110.66L26.4672 122.043L26.4664 122.046L11.8443 175.369C11.3453 180.238 12.9679 185.087 16.2991 188.675C19.6449 192.279 24.387 194.259 29.3023 194.103L90.0445 192.178L89.898 193.138L89.8855 193.136C89.898 193.138 89.898 193.138 89.898 193.138L89.8979 193.139L89.8973 193.143L89.8947 193.16C89.8923 193.176 89.8888 193.2 89.8841 193.232C89.8747 193.297 89.8609 193.394 89.8432 193.522C89.8079 193.779 89.7573 194.161 89.6966 194.66C89.5753 195.658 89.414 197.121 89.2547 198.978C88.9363 202.691 88.6266 207.973 88.6632 214.24C88.7363 226.781 90.1959 243.227 95.7188 258.924L94.1942 259.46C88.5898 243.532 87.1208 226.89 87.0471 214.249C87.0102 207.925 87.3226 202.593 87.6445 198.84C87.8055 196.963 87.9689 195.48 88.0923 194.465C88.1199 194.238 88.1455 194.034 88.1687 193.854L29.3534 195.719C23.971 195.889 18.7784 193.721 15.1146 189.775C11.4508 185.828 9.67456 180.489 10.2439 175.134L10.2508 175.069L24.9086 121.616L24.9094 121.613L28.077 110.224L28.0778 110.221C29.0384 106.813 28.8184 103.18 27.4536 99.9131C27.4535 99.913 27.4534 99.9128 27.4534 99.9126L25.9698 96.3726L25.9693 96.3717C25.9628 96.3578 25.9538 96.3387 25.9429 96.3147C25.9211 96.2668 25.8914 96.1994 25.8565 96.1153C25.787 95.9476 25.6961 95.711 25.6081 95.4289C25.4359 94.877 25.2569 94.0963 25.3065 93.2991C25.357 92.4864 25.6539 91.587 26.5018 90.9584C27.3244 90.3484 28.5223 90.1025 30.1339 90.2403L30.1362 90.2405C33.5657 90.5435 36.9239 91.9931 39.7281 93.776L39.7286 93.7763C40.8308 94.4781 42.2738 95.5381 43.3167 96.8395C44.3572 98.1379 45.1076 99.8249 44.4701 101.671L44.4698 101.671C43.762 103.713 42.0303 104.95 40.1554 105.405C38.2908 105.857 36.1815 105.566 34.5873 104.443L35.5182 103.122C36.6827 103.942 38.3012 104.192 39.7742 103.834C41.2366 103.479 42.4521 102.556 42.9425 101.143" fill="#2E3E5C"/>
<path fill-rule="evenodd" clip-rule="evenodd" d="M28.7879 90.689C28.7878 90.6887 28.7877 90.6884 28.0493 91.0167C27.3108 91.3449 27.3107 91.3445 27.3105 91.3441L27.31 91.343L27.3087 91.3401L27.3048 91.3311C27.3016 91.3237 27.2972 91.3136 27.2917 91.3008C27.2808 91.2752 27.2656 91.239 27.2468 91.1929C27.2093 91.1008 27.1575 90.969 27.0974 90.804C26.9775 90.4747 26.8235 90.0097 26.6852 89.461C26.4127 88.3803 26.1814 86.9006 26.4512 85.4791C26.7289 84.0158 27.5462 82.6035 29.3287 81.8159C31.051 81.0549 33.5641 80.9282 37.1441 81.6878C44.4206 83.2317 49.0266 88.0002 50.3801 92.3022C51.0534 94.442 50.953 96.6024 49.7554 98.1321C48.5345 99.6913 46.3831 100.336 43.5374 99.8776L43.7945 98.2821C46.3094 98.6874 47.7579 98.0616 48.4828 97.1358C49.2309 96.1803 49.4218 94.6412 48.8385 92.7872C47.6788 89.1016 43.5794 84.7054 36.8087 83.2688C33.3651 82.5381 31.2504 82.7337 29.9819 83.2942C28.7737 83.828 28.2371 84.7367 28.039 85.7805C27.8329 86.8661 28.0037 88.0799 28.2523 89.0659C28.3745 89.5505 28.5108 89.962 28.616 90.251C28.6685 90.3952 28.713 90.508 28.7436 90.5832C28.7589 90.6207 28.7707 90.6488 28.7783 90.6666C28.7821 90.6755 28.7848 90.6819 28.7864 90.6855L28.7879 90.689Z" fill="#2E3E5C"/>
<path fill-rule="evenodd" clip-rule="evenodd" d="M38.0671 74.2531C36.8501 74.1476 35.8735 74.2458 35.1953 74.509C33.6305 75.1163 32.8217 75.8489 32.4167 76.5287C32.0147 77.2033 31.9515 77.9246 32.07 78.6308C32.1903 79.3477 32.4945 80.0182 32.7841 80.524C32.9269 80.7734 33.0613 80.9744 33.1585 81.111C33.2069 81.1792 33.2458 81.2308 33.2713 81.264C33.284 81.2805 33.2934 81.2924 33.299 81.2994L33.3041 81.3058C33.3039 81.3056 33.3037 81.3053 32.6798 81.8189C32.0559 82.3325 32.0557 82.3322 32.0554 82.3318L32.0548 82.331L32.0532 82.3291L32.0488 82.3237C32.0453 82.3194 32.0408 82.3138 32.0353 82.3069C32.0243 82.2931 32.0092 82.274 31.9907 82.2499C31.9537 82.2019 31.9026 82.1337 31.8413 82.0476C31.7191 81.8756 31.555 81.6299 31.3815 81.327C31.0387 80.7282 30.6395 79.8715 30.4761 78.8983C30.311 77.9145 30.3839 76.7829 31.0283 75.7014C31.6697 74.625 32.8177 73.6981 34.6106 73.0023C35.6113 72.614 36.8657 72.5267 38.2066 72.6429C39.56 72.7602 41.064 73.0903 42.6024 73.5935C45.6746 74.5985 48.9605 76.3194 51.5421 78.531C54.1105 80.7313 56.0835 83.5085 56.2957 86.635C56.5113 89.8108 54.8975 93.0876 50.8563 96.2197L49.8662 94.9423C53.6463 92.0127 54.8503 89.2046 54.6833 86.7444C54.5129 84.2349 52.9027 81.8248 50.4907 79.7584C48.0918 77.7034 44.9999 76.0782 42.0999 75.1296C40.6522 74.656 39.2716 74.3574 38.0671 74.2531Z" fill="#2E3E5C"/>
<path fill-rule="evenodd" clip-rule="evenodd" d="M149.389 83.8198C143.96 82.0838 138.137 82.0003 132.661 83.5799C125.471 85.6669 121.158 91.0887 118.675 97.6523L118.563 97.9479L118.555 97.952C117.606 100.573 116.907 103.279 116.468 106.032L116.468 106.035L116.467 106.038C116.192 107.681 115.993 109.329 115.859 110.952C115.17 119.449 115.691 125.482 116.845 129.772L116.846 129.776L116.847 129.78C117.134 130.89 117.512 131.975 117.978 133.023L117.979 133.025L117.98 133.028C120.192 138.085 123.481 139.551 125.958 139.894L125.959 139.894C127.189 140.066 128.441 139.985 129.639 139.656L130.067 141.215C128.657 141.601 127.183 141.697 125.736 141.495C122.73 141.078 118.948 139.273 116.5 133.677C115.999 132.55 115.592 131.383 115.283 130.188C114.066 125.661 113.55 119.428 114.249 110.821L114.249 110.82C114.386 109.157 114.59 107.465 114.873 105.774C115.341 102.837 116.095 99.9527 117.123 97.1619C117.13 97.1383 117.139 97.1136 117.149 97.0879C117.163 97.0525 117.181 97.0154 117.203 96.9779C119.807 90.1545 124.419 84.2894 132.211 82.0277L132.212 82.0273C137.998 80.3582 144.15 80.4468 149.886 82.2817L149.89 82.283L149.893 82.2843C155.115 84.0139 159.834 87.2995 163.014 92.3362L163.014 92.3367C167.359 99.2312 168.433 106.447 165.975 113.645L165.975 113.645C164.757 117.208 163.504 120.99 163.105 124.717C162.707 128.426 163.163 132.015 165.306 135.23L165.306 135.23C171.39 144.358 175.195 150.955 173.987 162.112L172.381 161.938C173.523 151.381 170.008 145.198 163.962 136.127M149.389 83.8198C154.303 85.4482 158.694 88.5207 161.647 93.1989C165.762 99.7294 166.727 106.44 164.445 113.122C163.235 116.666 161.919 120.612 161.498 124.545C161.074 128.497 161.544 132.501 163.962 136.126" fill="#2E3E5C"/>
<path fill-rule="evenodd" clip-rule="evenodd" d="M116.752 130.383C114.486 134.355 111.575 141.866 113.731 152.204L112.149 152.534C109.894 141.718 112.939 133.805 115.349 129.582L116.752 130.383Z" fill="#2E3E5C"/>
<path fill-rule="evenodd" clip-rule="evenodd" d="M116.254 106.453C116.254 106.452 116.254 106.452 115.67 105.893C115.086 105.335 115.087 105.334 115.087 105.334L115.088 105.333L115.09 105.331L115.096 105.325C115.1 105.32 115.106 105.314 115.113 105.308C115.127 105.294 115.145 105.276 115.168 105.254C115.215 105.209 115.28 105.149 115.363 105.078C115.529 104.936 115.769 104.747 116.074 104.55C116.681 104.158 117.571 103.719 118.673 103.566C120.964 103.247 123.839 104.198 126.756 108.355L125.433 109.283C122.755 105.466 120.418 104.954 118.896 105.166C118.091 105.278 117.423 105.603 116.951 105.908C116.716 106.06 116.534 106.203 116.414 106.306C116.355 106.357 116.311 106.397 116.284 106.423C116.27 106.436 116.261 106.445 116.256 106.45L116.252 106.454L116.252 106.454L116.253 106.453L116.254 106.453ZM116.252 106.455L116.252 106.454L116.252 106.455Z" fill="#2E3E5C"/>
<path fill-rule="evenodd" clip-rule="evenodd" d="M137.243 120.604C137.596 120.724 137.821 121.07 137.788 121.441C137.774 121.598 137.754 121.758 137.736 121.903C137.73 121.951 137.724 121.997 137.719 122.041L137.718 122.051C137.361 124.749 136.688 127.874 134.926 130.258C133.237 132.546 130.016 133.602 127.528 131.991L127.967 131.312L127.524 131.989C126.981 131.633 126.507 131.18 126.129 130.651L126.128 130.649C125.302 129.49 124.777 128.143 124.599 126.731C124.572 126.514 124.633 126.296 124.77 126.125C124.906 125.955 125.106 125.847 125.324 125.826C129.599 125.415 134.041 124.485 136.301 120.935C136.501 120.621 136.891 120.484 137.243 120.604ZM128.407 130.635C130.003 131.667 132.31 131.081 133.626 129.298L133.626 129.297C134.725 127.811 135.36 125.931 135.759 123.992C133.135 126.229 129.543 126.982 126.355 127.343C126.566 128.191 126.934 128.995 127.444 129.711C127.705 130.076 128.032 130.389 128.407 130.635Z" fill="#2E3E5C"/>
<path fill-rule="evenodd" clip-rule="evenodd" d="M150.703 148.348L150.715 148.359L149.572 149.502L149.56 149.49L150.703 148.348Z" fill="#2E3E5C"/>
<path fill-rule="evenodd" clip-rule="evenodd" d="M131.833 104.767C131.833 104.766 131.833 104.766 131.146 104.341C130.458 103.917 130.459 103.916 130.459 103.915L130.46 103.914L130.462 103.911L130.466 103.905C130.469 103.9 130.472 103.895 130.476 103.889C130.484 103.877 130.494 103.863 130.505 103.846C130.529 103.813 130.56 103.771 130.6 103.722C130.679 103.623 130.794 103.497 130.948 103.357C131.257 103.077 131.723 102.75 132.382 102.501C133.712 101.999 135.726 101.853 138.663 102.878C141.602 103.904 143.173 105.287 144.005 106.497C144.417 107.097 144.636 107.64 144.752 108.048C144.81 108.251 144.842 108.42 144.859 108.546C144.868 108.608 144.873 108.66 144.876 108.7C144.878 108.72 144.879 108.737 144.88 108.751C144.88 108.757 144.88 108.763 144.88 108.769L144.881 108.776L144.881 108.779L144.881 108.781C144.881 108.781 144.881 108.782 144.073 108.799C143.265 108.816 143.265 108.816 143.265 108.817L143.265 108.818L143.265 108.821L143.265 108.824L143.265 108.829C143.265 108.83 143.265 108.829 143.265 108.825C143.264 108.817 143.263 108.798 143.259 108.77C143.251 108.712 143.234 108.616 143.198 108.489C143.126 108.236 142.978 107.856 142.673 107.412C142.068 106.532 140.802 105.337 138.131 104.404C135.459 103.472 133.847 103.676 132.953 104.013C132.501 104.184 132.206 104.398 132.032 104.556C131.945 104.635 131.887 104.7 131.855 104.74C131.839 104.759 131.829 104.773 131.826 104.777C131.825 104.779 131.825 104.78 131.825 104.78C131.825 104.78 131.825 104.779 131.825 104.778L131.828 104.774L131.831 104.77L131.832 104.768L131.833 104.767Z" fill="#2E3E5C"/>
<path fill-rule="evenodd" clip-rule="evenodd" d="M118.759 111.671C118.759 111.671 118.759 111.671 118.394 110.95C118.03 110.229 118.03 110.229 118.03 110.229L118.031 110.228L118.032 110.228L118.036 110.226L118.046 110.221C118.054 110.217 118.064 110.212 118.077 110.206C118.102 110.194 118.137 110.178 118.182 110.158C118.27 110.119 118.394 110.066 118.549 110.009C118.857 109.894 119.291 109.756 119.8 109.664C120.802 109.482 122.196 109.459 123.455 110.271L122.578 111.629C121.806 111.131 120.89 111.108 120.089 111.254C119.695 111.325 119.355 111.433 119.113 111.523C118.993 111.568 118.899 111.607 118.838 111.635C118.807 111.648 118.785 111.659 118.772 111.665C118.765 111.668 118.76 111.671 118.758 111.672L118.759 111.671ZM118.758 111.672C118.757 111.672 118.757 111.672 118.757 111.672L118.757 111.672L118.758 111.672L118.758 111.672Z" fill="#2E3E5C"/>
<path fill-rule="evenodd" clip-rule="evenodd" d="M132.725 112.878C132.725 112.878 132.726 112.878 132.361 112.157C131.996 111.435 131.997 111.435 131.997 111.435L131.998 111.435L131.999 111.434L132.002 111.432L132.012 111.428C132.02 111.424 132.03 111.419 132.043 111.413C132.069 111.401 132.104 111.384 132.148 111.365C132.236 111.325 132.361 111.273 132.515 111.215C132.823 111.101 133.256 110.963 133.764 110.87C134.764 110.688 136.157 110.665 137.409 111.479L136.528 112.834C135.765 112.338 134.854 112.315 134.054 112.46C133.661 112.532 133.321 112.639 133.08 112.73C132.96 112.774 132.866 112.814 132.805 112.841C132.774 112.855 132.752 112.865 132.738 112.872C132.731 112.875 132.727 112.877 132.725 112.878L132.725 112.878ZM132.725 112.878C132.724 112.879 132.723 112.879 132.723 112.879L132.724 112.879L132.725 112.878L132.725 112.878Z" fill="#2E3E5C"/>
<path fill-rule="evenodd" clip-rule="evenodd" d="M122.228 90.9994C122.228 90.9994 122.229 90.9992 121.864 90.278C121.499 89.5569 121.5 89.5566 121.5 89.5566L121.502 89.5556L121.505 89.5539L121.515 89.549C121.523 89.5452 121.533 89.5402 121.546 89.5341C121.572 89.522 121.607 89.5056 121.651 89.4859C121.739 89.4467 121.864 89.3942 122.018 89.3366C122.326 89.222 122.759 89.0841 123.267 88.9917C124.267 88.8097 125.66 88.7866 126.912 89.6005L126.031 90.9556C125.268 90.4592 124.357 90.4361 123.557 90.5817C123.164 90.6531 122.824 90.7608 122.583 90.8509C122.463 90.8957 122.369 90.9353 122.308 90.9627C122.277 90.9763 122.255 90.9868 122.241 90.9932C122.234 90.9964 122.23 90.9984 122.228 90.9994ZM122.228 90.9994L121 90.8878L122.227 91L122.228 90.9994Z" fill="#2E3E5C"/>
<path fill-rule="evenodd" clip-rule="evenodd" d="M124.619 112.666C124.619 112.666 124.619 112.666 125.392 112.902L126.165 113.139L126.146 113.202C126.133 113.243 126.115 113.305 126.091 113.383C126.044 113.54 125.976 113.766 125.896 114.039C125.735 114.587 125.522 115.325 125.313 116.088C125.104 116.853 124.902 117.635 124.761 118.274C124.69 118.594 124.638 118.867 124.607 119.079C124.603 119.102 124.6 119.124 124.598 119.145C124.666 119.147 124.751 119.145 124.851 119.137C125.065 119.12 125.285 119.08 125.458 119.042C125.543 119.023 125.613 119.005 125.661 118.993C125.685 118.987 125.703 118.982 125.714 118.979L125.725 118.975L125.727 118.975C125.726 118.975 125.726 118.975 125.954 119.75C126.181 120.526 126.181 120.526 126.181 120.526L126.18 120.526L126.177 120.527L126.17 120.529C126.165 120.531 126.157 120.533 126.148 120.535C126.129 120.541 126.103 120.548 126.071 120.556C126.006 120.573 125.915 120.596 125.807 120.62C125.593 120.667 125.295 120.723 124.981 120.748C124.684 120.772 124.294 120.776 123.937 120.666C123.553 120.549 123.077 120.245 122.978 119.617C122.94 119.374 122.974 119.078 123.008 118.845C123.047 118.579 123.108 118.263 123.183 117.926C123.332 117.248 123.542 116.437 123.754 115.662C123.966 114.885 124.183 114.137 124.345 113.583C124.427 113.306 124.495 113.077 124.543 112.918C124.567 112.838 124.586 112.775 124.599 112.733L124.619 112.666Z" fill="#2E3E5C"/>
<path fill-rule="evenodd" clip-rule="evenodd" d="M129.751 109.573C127.397 111.922 127.421 115.808 129.861 118.253C132.302 120.698 136.188 120.728 138.541 118.378C140.895 116.029 140.871 112.143 138.431 109.698C135.99 107.254 132.104 107.223 129.751 109.573ZM128.717 119.395C125.672 116.344 125.598 111.435 128.609 108.429C131.62 105.423 136.529 105.506 139.574 108.556C142.62 111.607 142.694 116.517 139.683 119.522C136.672 122.528 131.762 122.445 128.717 119.395Z" fill="#2E3E5C"/>
<path fill-rule="evenodd" clip-rule="evenodd" d="M112.246 107.445C109.892 109.794 109.916 113.68 112.356 116.125C114.797 118.57 118.683 118.6 121.036 116.25C123.39 113.901 123.366 110.015 120.926 107.57C118.485 105.126 114.599 105.095 112.246 107.445ZM111.213 117.267C108.168 114.216 108.093 109.307 111.104 106.301C114.115 103.295 119.025 103.378 122.07 106.428C125.115 109.479 125.189 114.389 122.178 117.394C119.167 120.4 114.258 120.317 111.213 117.267Z" fill="#2E3E5C"/>
<path fill-rule="evenodd" clip-rule="evenodd" d="M123.652 111.882L127.327 112.328L127.132 113.932L123.458 113.486L123.652 111.882Z" fill="#2E3E5C"/>
<path fill-rule="evenodd" clip-rule="evenodd" d="M44.5644 31.637C45.2296 23.3089 52.141 16.6164 60.4921 16.1902H60.495C67.2805 15.8385 73.6152 19.5906 76.5675 25.7103C79.5199 31.8301 78.5139 39.1235 74.0153 44.2156C73.9789 44.2546 73.9453 44.2959 73.9145 44.3394C72.7014 45.6758 71.2855 46.8128 69.7187 47.7087C69.326 47.9241 68.9613 48.1872 68.6331 48.492C64.0558 50.7848 58.6634 50.7763 54.0934 48.4689C53.7485 48.1745 53.3774 47.9123 52.9847 47.6857C51.4796 46.8258 50.1191 45.7344 48.9531 44.4517C45.7558 40.9859 44.1631 36.3353 44.5644 31.637ZM70.8677 42.6606C70.8872 42.6257 70.9137 42.5953 70.9455 42.5713L70.9426 42.577C74.5823 38.4561 75.2365 32.4912 72.5763 27.6793C69.9162 22.8675 64.5169 20.2491 59.0914 21.1397C53.6658 22.0304 49.387 26.2375 48.4048 31.6472C47.4225 37.0569 49.9493 42.4997 54.7154 45.2408C55.0206 45.4209 55.3097 45.6271 55.5793 45.857C59.1085 47.6235 63.2638 47.6235 66.7929 45.857C67.0423 45.6207 67.321 45.4175 67.6223 45.2523C68.8327 44.5629 69.9277 43.6885 70.8677 42.6606Z" fill="#D93A49"/>
<path d="M68.6273 48.4949C67.2869 49.7114 66.5251 51.4391 66.5309 53.2493V54.021C66.5309 56.7164 64.5784 59.1325 61.9233 59.4032C60.4724 59.552 59.0262 59.0805 57.9417 58.1052C56.8572 57.1299 56.2355 55.7416 56.2301 54.2831V53.2493C56.2271 51.4292 55.4552 49.6951 54.1049 48.4747C58.6748 50.7751 64.0626 50.7825 68.6388 48.4949H68.6273Z" fill="#2E3E5C"/>
<path fill-rule="evenodd" clip-rule="evenodd" d="M68.3154 47.6868H68.6389L68.9007 48.796L69.1705 49.0932C67.9995 50.156 67.334 51.6653 67.339 53.2467L67.339 53.2493L67.339 54.021C67.339 57.0787 65.123 59.889 62.0058 60.2071C60.328 60.3791 58.6555 59.8339 57.4014 58.7061C56.1473 57.5782 55.4284 55.9727 55.4221 54.2861L55.4221 54.2831V53.25C55.4192 51.6582 54.7441 50.1416 53.5631 49.0742L54.4683 47.7529C58.7693 49.9179 63.8329 49.9453 68.1542 47.8331L68.3154 47.6868ZM66.3574 50.273C63.1095 51.264 59.6357 51.2601 56.39 50.2617C56.8111 51.1899 57.0365 52.2064 57.0383 53.2479L57.0383 53.2493L57.0383 54.2815C57.0433 55.5114 57.5676 56.6819 58.4821 57.5044C59.397 58.3271 60.617 58.7249 61.841 58.5993L61.8414 58.5993C64.0342 58.3757 65.7229 56.354 65.7229 54.021V53.2504C65.7198 52.2126 65.9406 51.1989 66.3574 50.273Z" fill="#2E3E5C"/>
<path fill-rule="evenodd" clip-rule="evenodd" d="M62.0431 16.9521C53.4253 16.594 46.0638 23.1076 45.37 31.7049L45.3698 31.7066C44.8548 37.9215 47.978 43.8742 53.3846 46.9822L53.3853 46.9826C53.795 47.2186 54.1827 47.491 54.5437 47.7963C58.8347 49.9225 63.871 49.9312 68.1691 47.8201C68.5201 47.5094 68.9034 47.2372 69.3125 47.0081C70.7954 46.1622 72.1364 45.0892 73.287 43.8283C73.3253 43.7771 73.3661 43.7277 73.4092 43.6804C76.0103 40.7477 77.4429 36.9613 77.4347 33.0411L78.2427 33.0394L77.4347 33.0374C77.4565 24.4122 70.6608 17.3102 62.0431 16.9521ZM79.0508 33.0398C79.074 23.5473 71.5947 15.7315 62.1102 15.3373C52.6253 14.9432 44.5232 22.1119 43.7591 31.574C43.1927 38.4127 46.6294 44.9628 52.5785 48.3829M79.0508 33.0398C79.0594 37.3578 77.4803 41.5283 74.6139 44.7578L74.6092 44.7631L74.6044 44.7683C74.5942 44.7794 74.5847 44.7912 74.576 44.8036L74.5469 44.845L74.5129 44.8825C73.2407 46.2842 71.7548 47.4759 70.1104 48.4135L70.1075 48.4152L70.1046 48.4168C69.7693 48.6044 69.4569 48.8304 69.1738 49.0902L69.0902 49.1669L68.9887 49.2176C64.1843 51.6194 58.5279 51.6115 53.7301 49.1965L53.6398 49.151L53.5635 49.0847C53.2585 48.8197 52.9288 48.5848 52.5788 48.3831" fill="#2E3E5C"/>
<path fill-rule="evenodd" clip-rule="evenodd" d="M56.3169 37.7202C56.8331 37.7017 57.2639 37.4768 57.5692 37.1112L56.3169 37.7202ZM57.5692 37.1112C57.7036 36.9503 57.8067 36.771 57.8855 36.5845L57.5692 37.1112ZM56.4709 35.702C56.4276 35.9203 56.3657 36.0309 56.3286 36.0753L56.3274 36.0769C56.3106 36.097 56.3053 36.1034 56.2589 36.1051C55.9544 36.116 55.49 35.8893 54.8988 35.2558C54.3426 34.6599 53.8218 33.8623 53.4029 33.1223L53.4013 33.1194L53.3997 33.1166C53.1049 32.6054 52.5034 32.356 51.9333 32.5088C51.3633 32.6615 50.967 33.1782 50.9672 33.7683L50.9673 33.874L51.9655 37.6173L55.8338 50.4388L57.3811 49.972L53.5203 37.1755L53.1084 35.6308C53.3016 35.8854 53.5051 36.1312 53.7172 36.3585C54.3643 37.0518 55.2623 37.7581 56.3169 37.7202M58.1279 34.8718C58.104 34.3551 58.0159 33.8185 57.8881 33.3116C57.6662 32.4313 57.2974 31.5345 56.8192 30.8824C56.5813 30.5579 56.2811 30.2455 55.9117 30.0485C55.5187 29.839 55.0416 29.7615 54.555 29.9509C54.1308 30.1159 53.8029 30.4238 53.6421 30.852C53.4928 31.2494 53.5192 31.6649 53.606 32.024C53.7777 32.7347 54.2512 33.4996 54.8438 34.1902C55.2898 34.71 55.8437 35.2337 56.4709 35.702M58.1279 34.8718C58.8209 35.2894 59.5683 35.5971 60.3021 35.7109C60.3688 35.7213 60.4319 35.7285 60.4916 35.733C59.6674 35.0788 59.0471 34.3105 58.6552 33.5646C58.2539 32.8008 58.0249 31.9276 58.2296 31.1788C58.3388 30.7794 58.5765 30.4102 58.9693 30.1681C59.3517 29.9323 59.8003 29.8666 60.2519 29.9079C61.2343 29.9978 61.9827 30.6253 62.4731 31.3446C62.9666 32.0685 63.267 32.9746 63.3399 33.8461C63.3831 34.3631 63.3491 34.9119 63.1969 35.4228C63.5285 35.5458 63.8821 35.6453 64.2569 35.715C65.1702 35.8849 65.7397 35.7818 66.0916 35.6065C65.7276 34.9257 65.4838 34.1853 65.3421 33.5047C65.1746 32.7001 65.1306 31.8855 65.2628 31.2936C65.3201 31.0369 65.4575 30.5974 65.8546 30.3478C66.0859 30.2024 66.3555 30.1555 66.6187 30.2064C66.8593 30.253 67.0528 30.3723 67.1959 30.4885C67.6983 30.8965 68.0577 31.5978 68.268 32.2885C68.4861 33.0047 68.589 33.8546 68.4604 34.6631C68.4038 35.0186 68.2998 35.3783 68.1337 35.7159C68.3321 35.9224 68.5458 36.0848 68.7728 36.1986C68.7831 36.1545 68.7935 36.1104 68.804 36.0664C69.0207 35.1596 69.3099 34.2097 69.8157 33.3433L69.8167 33.3417C69.8659 33.2577 69.9379 33.1517 70.0405 33.0559C70.1416 32.9615 70.3239 32.8303 70.5845 32.8051C71.1724 32.7482 71.4452 33.2336 71.4946 33.3269C71.5814 33.4909 71.6291 33.6717 71.6585 33.8104C71.6905 33.9619 71.7132 34.1265 71.729 34.2893C71.7605 34.6144 71.7687 34.9767 71.7542 35.296C71.7469 35.4559 71.7334 35.6157 71.7116 35.7613C71.6921 35.8914 71.6579 36.069 71.5857 36.2309L71.5848 36.2329C71.3548 36.745 70.9862 37.2541 70.4718 37.5886C70.3489 37.6685 70.2188 37.7375 70.0826 37.7935C69.9938 38.218 69.9002 38.6535 69.7897 39.0795L69.7895 39.0803C69.3659 40.7066 68.842 42.3009 68.3274 43.8669C68.2675 44.049 68.2078 44.2307 68.1484 44.4121C67.5746 46.1633 67.0262 47.8862 66.628 49.6465L65.0517 49.2899C65.4684 47.4476 66.0388 45.6602 66.6126 43.9089C66.6722 43.727 66.7318 43.5456 66.7913 43.3645C67.3078 41.7921 67.8153 40.2476 68.2253 38.6737M68.4279 37.8064C67.8899 37.6125 67.4338 37.2976 67.0516 36.9199C66.2639 37.4084 65.2241 37.5389 63.9613 37.3039C63.3668 37.1933 62.8125 37.0223 62.301 36.8058C61.7284 37.2634 60.9582 37.4481 60.0545 37.308C59.3061 37.192 58.5729 36.9332 57.8855 36.5845M68.4279 37.8064C68.3636 38.1047 68.2981 38.393 68.2255 38.6729L68.4279 37.8064ZM71.2107 34.1594C71.2118 34.1576 71.2116 34.1581 71.2101 34.1605C71.2103 34.1601 71.2105 34.1597 71.2107 34.1594ZM66.8664 31.5593C66.8666 31.5597 66.8648 31.5646 66.8603 31.5729C66.8639 31.563 66.8661 31.5589 66.8664 31.5593ZM61.7171 34.6343C61.7436 34.4388 61.7493 34.2197 61.7294 33.9807C61.6777 33.3627 61.4608 32.7288 61.1378 32.255C60.8116 31.7765 60.4441 31.5484 60.1047 31.5173C59.8954 31.4982 59.8227 31.5406 59.8174 31.5438C59.8141 31.5458 59.8134 31.5466 59.8114 31.5495C59.8084 31.5536 59.7983 31.5694 59.7885 31.6051C59.74 31.7825 59.768 32.2078 60.0859 32.813C60.4073 33.4247 60.9585 34.0867 61.7171 34.6343ZM56.2019 33.287C56.0174 32.7042 55.7726 32.1882 55.5159 31.8381C55.3566 31.6208 55.2276 31.5155 55.1517 31.4749C55.1525 31.5111 55.158 31.5663 55.1769 31.6444C55.2631 32.0012 55.5549 32.5371 56.0703 33.1377C56.1131 33.1876 56.157 33.2374 56.2019 33.287Z" fill="#2E3E5C"/>
<path fill-rule="evenodd" clip-rule="evenodd" d="M31.4402 259.964C31.4586 259.959 31.5008 259.947 31.5515 259.924L30.8653 258.46C30.9815 258.406 31.0969 258.384 31.1406 258.376C31.2052 258.364 31.2757 258.354 31.3459 258.346C31.4876 258.329 31.6688 258.315 31.8821 258.301C32.3108 258.274 32.9068 258.25 33.6542 258.227C35.1508 258.181 37.281 258.142 39.9505 258.109C45.2909 258.044 52.806 258.003 61.7635 257.981C79.6794 257.936 103.375 257.966 127.006 258.025C150.636 258.085 174.203 258.175 191.863 258.249C200.692 258.287 208.045 258.32 213.19 258.345C215.763 258.357 217.784 258.367 219.161 258.373L221.271 258.384C221.273 258.384 221.274 258.384 221.269 259.192C221.265 260 221.265 260 221.263 260L219.153 259.99C217.776 259.983 215.755 259.973 213.183 259.961C208.037 259.937 200.685 259.903 191.856 259.866C174.197 259.791 150.631 259.701 127.001 259.642C103.372 259.582 79.6793 259.552 61.7676 259.597C52.8113 259.619 45.3026 259.66 39.9703 259.725C37.3035 259.758 35.1851 259.797 33.7035 259.842C32.9617 259.865 32.3863 259.889 31.9839 259.914C31.7816 259.927 31.6324 259.94 31.5315 259.951C31.4815 259.957 31.4528 259.962 31.4402 259.964ZM31.4395 259.964C31.4397 259.964 31.44 259.964 31.4402 259.964C31.4279 259.967 31.4262 259.967 31.4395 259.964Z" fill="#2E3E5C"/>
<path fill-rule="evenodd" clip-rule="evenodd" d="M62.2731 0L62.4401 10.1452L60.2835 10.1807L60.1165 0.0355039L62.2731 0Z" fill="#2E3E5C"/>
<path fill-rule="evenodd" clip-rule="evenodd" d="M35.7677 11.5302L42.7914 18.8533L41.2347 20.3463L34.2111 13.0232L35.7677 11.5302Z" fill="#2E3E5C"/>
<path fill-rule="evenodd" clip-rule="evenodd" d="M88.7238 13.6473L81.5447 20.8178L80.0205 19.2918L87.1996 12.1213L88.7238 13.6473Z" fill="#2E3E5C"/>
<path d="M188.409 245.352L188.654 245.375C188.521 245.398 188.366 245.421 188.23 245.453H188.023L168.525 245.352H166.322L133.562 245.185C133.438 245.185 133.314 245.185 133.191 245.185C133.161 245.19 133.131 245.19 133.101 245.185C133.101 245.185 133.101 245.185 133.081 245.185C132.875 245.187 132.669 245.172 132.465 245.142C134.217 244.944 135.877 244.254 137.254 243.152C137.47 242.971 137.691 242.798 137.893 242.602L137.916 242.579C137.963 242.541 138.007 242.499 138.049 242.455C139.713 240.808 140.71 238.604 140.848 236.267C140.848 236.154 140.848 236.03 140.848 235.918V235.74C140.827 231.241 137.655 227.374 133.248 226.473C133.242 226.467 133.232 226.467 133.225 226.473C133.012 226.418 132.767 226.383 132.543 226.349L133.023 226.317C133.102 226.311 133.181 226.311 133.26 226.317H133.64L161.317 226.461L166.411 226.484L170.932 226.507H173.037H173.293H173.383C178.218 226.994 181.901 231.059 181.912 235.918C181.912 236.364 181.878 236.81 181.812 237.251C181.138 241.775 177.331 245.173 172.761 245.332C172.66 245.332 172.559 245.332 172.473 245.332H188.916C188.677 245.341 188.521 245.341 188.409 245.352Z" fill="white"/>
<path d="M144.375 256.796C145.631 258.059 147.34 258.768 149.121 258.766H133.058C129.982 258.766 128.312 258.017 127.094 256.796C125.836 255.537 125.127 253.83 125.124 252.05C125.124 248.37 128.145 245.346 133.058 245.346H149.121C146.406 245.342 143.957 246.975 142.917 249.483C141.878 251.991 142.453 254.879 144.375 256.796Z" fill="#D0DBEA"/>
<path d="M197.474 236.053C197.474 236.232 197.474 236.422 197.451 236.601C197.428 236.903 197.397 237.194 197.35 237.485C197.327 237.64 197.296 237.799 197.261 237.954C197.195 238.242 197.117 238.559 197.028 238.85C196.927 239.17 196.807 239.485 196.668 239.791C196.623 239.909 196.571 240.025 196.513 240.137C196.513 240.171 196.489 240.194 196.466 240.226C196.4 240.373 196.322 240.514 196.245 240.652C196.121 240.877 195.986 241.099 195.842 241.312C195.672 241.571 195.482 241.804 195.292 242.04C195.102 242.275 194.9 242.499 194.687 242.711C194.459 242.943 194.216 243.161 193.961 243.362L193.673 243.595C193.346 243.843 193.001 244.067 192.642 244.266C192.475 244.356 192.297 244.448 192.118 244.537C192.101 244.549 192.081 244.556 192.06 244.557C191.859 244.658 191.657 244.739 191.456 244.816C191.254 244.894 191.053 244.972 190.842 245.038C190.629 245.096 190.416 245.162 190.203 245.208C189.68 245.328 189.149 245.406 188.613 245.441C188.501 245.441 188.392 245.441 188.279 245.441H188.098C188.222 245.41 188.346 245.398 188.469 245.375C188.483 245.37 188.499 245.37 188.513 245.375C188.456 245.374 188.4 245.366 188.346 245.352C188.383 245.346 188.421 245.346 188.458 245.352H188.95H172.473H172.761C174.787 245.244 176.725 244.485 178.287 243.189C178.522 242.997 178.747 242.792 178.961 242.576C179.139 242.402 179.307 242.219 179.465 242.026C179.585 241.892 179.696 241.751 179.799 241.603C179.865 241.522 179.922 241.444 179.977 241.367C180.084 241.224 180.18 241.074 180.265 240.917C180.396 240.735 180.513 240.542 180.614 240.341C180.721 240.149 180.817 239.951 180.902 239.748C180.945 239.659 180.979 239.558 181.037 239.46C181.115 239.259 181.181 239.057 181.247 238.855C181.339 238.567 181.429 238.262 181.495 237.963C181.535 237.801 181.565 237.636 181.584 237.47C181.597 237.43 181.605 237.389 181.607 237.346C181.62 237.314 181.628 237.28 181.63 237.246C181.63 237.133 181.662 237.033 181.673 236.92C181.673 236.897 181.673 236.877 181.673 236.854C181.715 236.542 181.735 236.227 181.731 235.912C181.735 235.767 181.727 235.622 181.708 235.478V235.377C181.708 235.234 181.696 235.091 181.673 234.951C181.597 234.173 181.42 233.41 181.146 232.678C180.995 232.24 180.802 231.816 180.57 231.414C180.359 231.009 180.112 230.624 179.833 230.262C179.761 230.157 179.682 230.056 179.597 229.96C179.563 229.925 179.531 229.879 179.485 229.836C179.335 229.64 179.171 229.456 178.992 229.286C178.86 229.154 178.704 229.018 178.569 228.874C178.434 228.73 178.209 228.56 178.019 228.425C177.829 228.29 177.705 228.192 177.538 228.08C177.29 227.899 177.028 227.738 176.755 227.599C176.5 227.45 176.235 227.322 175.96 227.216C175.642 227.079 175.317 226.96 174.987 226.859C174.874 226.817 174.757 226.787 174.638 226.769C174.33 226.681 174.016 226.614 173.699 226.568C173.541 226.533 173.386 226.522 173.219 226.501H173.195C173.174 226.507 173.151 226.507 173.129 226.501H173.296L182.071 226.545L188.069 226.579C188.546 226.581 189.022 226.623 189.492 226.703C190.711 226.892 191.88 227.326 192.927 227.979C193.063 228.056 193.184 228.146 193.307 228.224C193.685 228.472 194.041 228.754 194.37 229.064C194.484 229.163 194.593 229.268 194.695 229.378C195.549 230.243 196.232 231.26 196.711 232.376C196.778 232.518 196.835 232.664 196.881 232.814C196.939 232.955 196.988 233.1 197.025 233.249C197.315 234.156 197.466 235.101 197.474 236.053Z" fill="#D93A49"/>
<path fill-rule="evenodd" clip-rule="evenodd" d="M173.129 225.757C173.087 225.759 173.045 225.766 173.004 225.776L173.098 225.751H173.3L188.073 225.829C188.072 225.829 188.073 225.829 188.073 225.829C188.588 225.832 189.104 225.876 189.612 225.963C190.926 226.167 192.185 226.634 193.314 227.336C193.413 227.394 193.551 227.486 193.637 227.543C193.669 227.564 193.694 227.581 193.706 227.588L193.713 227.593L193.72 227.597C194.13 227.867 194.516 228.172 194.873 228.508C195 228.619 195.122 228.736 195.237 228.859C196.149 229.786 196.881 230.875 197.396 232.069C197.47 232.228 197.534 232.392 197.587 232.559C197.65 232.716 197.704 232.877 197.746 233.042C198.054 234.014 198.215 235.027 198.224 236.047L197.474 236.053H198.224L198.224 236.07C198.224 236.233 198.224 236.456 198.198 236.676C198.174 236.986 198.14 237.291 198.092 237.598C198.065 237.777 198.03 237.953 197.993 238.117L197.992 238.122C197.925 238.415 197.842 238.753 197.745 239.07L197.743 239.075C197.635 239.418 197.507 239.754 197.36 240.082C197.317 240.19 197.27 240.297 197.219 240.402C197.194 240.475 197.163 240.533 197.137 240.576C197.13 240.587 197.123 240.598 197.116 240.608C197.044 240.759 196.967 240.898 196.9 241.017C196.767 241.259 196.621 241.498 196.466 241.728C196.285 242.003 196.086 242.25 195.911 242.467C195.899 242.482 195.887 242.496 195.876 242.511L195.875 242.512C195.669 242.766 195.45 243.009 195.219 243.24C194.971 243.492 194.707 243.729 194.429 243.948L194.135 244.186L194.125 244.194C193.77 244.462 193.396 244.706 193.006 244.922L192.996 244.928C192.832 245.016 192.658 245.105 192.484 245.193C192.431 245.223 192.375 245.248 192.317 245.267C192.109 245.366 191.908 245.446 191.726 245.516L191.717 245.52C191.521 245.595 191.301 245.68 191.068 245.753L191.053 245.758L191.038 245.762C190.991 245.775 190.937 245.79 190.88 245.806C190.724 245.85 190.538 245.903 190.366 245.94C189.806 246.068 189.237 246.151 188.663 246.19L188.638 246.191H188.098L188.087 246.102H172.473V244.602H172.74C174.599 244.498 176.375 243.801 177.808 242.612L177.812 242.609C178.027 242.433 178.232 242.246 178.427 242.049L178.432 242.044L178.438 242.039C178.595 241.885 178.744 241.722 178.884 241.552L178.895 241.538L178.907 241.525C179.006 241.415 179.097 241.298 179.181 241.177L179.199 241.151L179.219 241.127C179.27 241.064 179.316 241.002 179.364 240.935L179.37 240.926L179.376 240.918C179.461 240.804 179.538 240.684 179.607 240.559L179.629 240.518L179.656 240.48C179.764 240.329 179.86 240.17 179.944 240.004L179.951 239.989L179.959 239.975C180.052 239.809 180.136 239.637 180.209 239.461L180.217 239.441L180.226 239.421C180.235 239.405 180.24 239.392 180.25 239.369C180.256 239.354 180.264 239.335 180.277 239.307C180.296 239.264 180.321 239.206 180.355 239.143C180.417 238.978 180.473 238.81 180.534 238.624C180.622 238.348 180.703 238.068 180.762 237.801L180.765 237.791L180.767 237.782C180.799 237.651 180.824 237.518 180.839 237.384L180.848 237.31L180.86 237.272L180.865 237.183L180.885 237.133C180.891 237.058 180.901 236.996 180.909 236.953C180.913 236.928 180.916 236.91 180.919 236.896C180.921 236.886 180.922 236.878 180.923 236.871V236.804L180.93 236.754C180.967 236.478 180.984 236.2 180.981 235.921L180.981 235.907L180.981 235.893C180.984 235.787 180.978 235.681 180.964 235.576L180.958 235.527V235.377C180.958 235.377 180.958 235.377 180.958 235.377C180.958 235.275 180.95 235.172 180.933 235.071L180.929 235.047L180.927 235.024C180.857 234.311 180.695 233.612 180.444 232.941L180.441 232.932L180.437 232.923C180.301 232.529 180.128 232.15 179.92 231.788L179.913 231.775L179.905 231.761C179.715 231.395 179.492 231.047 179.24 230.721L179.227 230.704L179.215 230.686C179.163 230.611 179.106 230.538 179.046 230.469C179.029 230.451 179.015 230.435 179.005 230.424C178.995 230.412 178.983 230.398 178.976 230.39C178.975 230.388 178.974 230.387 178.973 230.386C178.97 230.382 178.967 230.379 178.966 230.377L178.926 230.34L178.888 230.29C178.763 230.126 178.625 229.972 178.475 229.829L178.468 229.823L178.462 229.816C178.417 229.771 178.369 229.727 178.312 229.673C178.298 229.659 178.282 229.645 178.267 229.63C178.193 229.56 178.106 229.477 178.023 229.388C177.944 229.305 177.777 229.173 177.584 229.036C177.486 228.966 177.416 228.915 177.356 228.87C177.276 228.811 177.212 228.764 177.12 228.702L177.108 228.694L177.097 228.686C176.88 228.529 176.652 228.388 176.413 228.266L176.395 228.257L176.377 228.246C176.157 228.118 175.927 228.007 175.689 227.915L175.677 227.91L175.665 227.905C175.371 227.779 175.071 227.669 174.766 227.575L174.746 227.569L174.726 227.562C174.662 227.538 174.596 227.521 174.529 227.511L174.48 227.504L174.433 227.491C174.156 227.412 173.875 227.351 173.591 227.31L173.565 227.306L173.54 227.3C173.461 227.283 173.395 227.276 173.289 227.264C173.263 227.262 173.235 227.258 173.203 227.255C173.114 227.259 173.025 227.25 172.938 227.227L173.129 225.757ZM177.688 227.273C177.783 227.335 177.876 227.399 177.968 227.465C178.075 227.537 178.183 227.616 178.285 227.691C178.344 227.734 178.4 227.776 178.454 227.814C178.641 227.947 178.923 228.156 179.115 228.361C179.167 228.415 179.226 228.472 179.297 228.54C179.309 228.551 179.321 228.562 179.334 228.574C179.39 228.628 179.456 228.689 179.516 228.749C179.709 228.933 179.887 229.131 180.05 229.341C180.08 229.373 180.103 229.4 180.117 229.416L180.135 229.438L180.143 229.446L180.158 229.463C180.259 229.576 180.353 229.696 180.439 229.82C180.737 230.208 181.001 230.62 181.228 231.054C181.478 231.49 181.687 231.949 181.852 232.424C182.144 233.207 182.334 234.024 182.418 234.855C182.444 235.027 182.458 235.202 182.458 235.376V235.431C182.477 235.592 182.485 235.755 182.481 235.917C182.484 236.247 182.465 236.576 182.423 236.903V236.959L182.419 236.997C182.414 237.048 182.407 237.093 182.401 237.128C182.398 237.146 182.395 237.163 182.393 237.177L182.386 237.213C182.382 237.236 182.381 237.247 182.38 237.251V237.272L182.378 237.299C182.373 237.367 182.362 237.435 182.344 237.502C182.339 237.54 182.331 237.578 182.322 237.616C182.299 237.791 182.267 237.963 182.225 238.134C182.152 238.462 182.056 238.788 181.961 239.084L181.96 239.09L181.957 239.097C181.893 239.294 181.821 239.511 181.737 239.73L181.715 239.787L181.683 239.84C181.677 239.851 181.669 239.868 181.651 239.908L181.637 239.94L181.621 239.978C181.611 239.999 181.6 240.026 181.587 240.054C181.495 240.273 181.391 240.486 181.276 240.693C181.166 240.91 181.041 241.118 180.901 241.317C180.806 241.487 180.701 241.65 180.585 241.807C180.529 241.885 180.468 241.967 180.398 242.054C180.286 242.214 180.165 242.368 180.035 242.514C179.864 242.722 179.682 242.92 179.489 243.108C179.259 243.341 179.017 243.561 178.764 243.768C178.394 244.074 178.006 244.353 177.601 244.602H188.304C188.369 244.596 188.435 244.596 188.5 244.602H188.95V244.659C189.315 244.62 189.678 244.559 190.036 244.477L190.045 244.475C190.17 244.448 190.285 244.415 190.421 244.377C190.485 244.359 190.554 244.339 190.631 244.318C190.81 244.261 190.986 244.194 191.186 244.117C191.384 244.04 191.557 243.97 191.725 243.886L191.87 243.814L191.888 243.813C192.023 243.745 192.157 243.675 192.283 243.608C192.606 243.428 192.916 243.227 193.211 243.004L193.497 242.773C193.727 242.591 193.946 242.395 194.152 242.186L194.158 242.18C194.352 241.986 194.535 241.783 194.708 241.57C194.708 241.57 194.708 241.569 194.708 241.57L194.73 241.541C194.916 241.31 195.074 241.114 195.214 240.901L195.22 240.892C195.351 240.698 195.475 240.496 195.588 240.29L195.591 240.285C195.658 240.165 195.715 240.061 195.763 239.962V239.954L195.793 239.896L195.814 239.847L195.826 239.832L195.847 239.792C195.892 239.704 195.933 239.614 195.968 239.522L195.976 239.502L195.985 239.482C196.111 239.204 196.22 238.918 196.312 238.627C196.392 238.364 196.465 238.07 196.53 237.789C196.562 237.644 196.589 237.505 196.609 237.375L196.61 237.367C196.652 237.101 196.682 236.83 196.703 236.544L196.705 236.524L196.707 236.505C196.723 236.383 196.724 236.243 196.724 236.057C196.716 235.181 196.577 234.311 196.311 233.477L196.304 233.455L196.298 233.433C196.269 233.319 196.232 233.208 196.188 233.1L196.175 233.069L196.165 233.037C196.129 232.92 196.084 232.806 196.032 232.695L196.027 232.683L196.022 232.672C195.58 231.642 194.949 230.703 194.161 229.905L194.154 229.897L194.146 229.889C194.062 229.799 193.973 229.713 193.879 229.632L193.867 229.621L193.855 229.61C193.56 229.331 193.24 229.078 192.901 228.854C192.811 228.797 192.758 228.761 192.715 228.731C192.664 228.697 192.625 228.67 192.554 228.629L192.542 228.622L192.531 228.615C191.569 228.016 190.496 227.618 189.377 227.444L189.365 227.442C188.936 227.369 188.501 227.331 188.066 227.329L177.688 227.273ZM195.885 239.752C195.885 239.751 195.886 239.751 195.885 239.752V239.752Z" fill="#2E3E5C"/>
<path fill-rule="evenodd" clip-rule="evenodd" d="M136.706 227.261H172.257C172.536 227.261 172.739 227.262 172.936 227.288C172.972 227.293 173.007 227.295 173.043 227.295H173.076C173.12 227.299 173.165 227.3 173.209 227.298L173.585 227.353C173.585 227.353 173.586 227.353 173.586 227.353C173.868 227.394 174.146 227.454 174.42 227.532C174.439 227.538 174.459 227.542 174.479 227.546C174.565 227.564 174.664 227.589 174.752 227.616C175.055 227.71 175.353 227.819 175.645 227.944L175.65 227.946C175.886 228.045 176.132 228.168 176.379 228.298C176.62 228.426 176.853 228.569 177.076 228.726C177.081 228.729 177.086 228.733 177.09 228.736C177.253 228.846 177.39 228.94 177.519 229.043C177.553 229.07 177.588 229.098 177.623 229.126C177.763 229.237 177.907 229.35 178.035 229.464C178.105 229.526 178.162 229.583 178.225 229.647C178.232 229.654 178.24 229.662 178.248 229.67C178.298 229.721 178.358 229.783 178.425 229.845C178.589 230.021 178.732 230.174 178.862 230.333C178.882 230.358 178.903 230.381 178.926 230.403C178.927 230.404 178.929 230.406 178.932 230.409L178.939 230.418C178.946 230.426 178.956 230.438 178.964 230.447C178.97 230.454 178.977 230.462 178.985 230.472L179.191 230.735C179.437 231.071 179.661 231.422 179.863 231.785C180.062 232.161 180.239 232.549 180.392 232.946C180.629 233.606 180.789 234.291 180.869 234.988C180.873 235.128 180.89 235.289 180.9 235.376C180.901 235.385 180.902 235.394 180.903 235.402V235.463C180.903 235.475 180.903 235.487 180.904 235.499C180.908 235.607 180.909 235.735 180.909 235.884H181.717L180.909 235.888C180.91 236.173 180.896 236.458 180.867 236.741C180.864 236.769 180.862 236.797 180.862 236.825V236.829C180.856 236.869 180.851 236.907 180.845 236.943C180.832 237.027 180.821 237.103 180.807 237.185C180.805 237.201 180.802 237.216 180.801 237.232C180.791 237.27 180.783 237.309 180.779 237.348C180.763 237.48 180.74 237.611 180.708 237.739C180.707 237.744 180.705 237.748 180.704 237.753C180.645 238.013 180.562 238.303 180.475 238.578C180.415 238.763 180.359 238.93 180.298 239.093C180.265 239.158 180.239 239.215 180.221 239.257C180.211 239.279 180.204 239.295 180.199 239.308C180.187 239.335 180.182 239.345 180.176 239.358C180.168 239.375 180.16 239.392 180.152 239.409C180.08 239.584 179.998 239.753 179.906 239.918C179.9 239.928 179.894 239.939 179.889 239.949C179.807 240.113 179.712 240.269 179.606 240.418C179.586 240.445 179.569 240.473 179.553 240.502C179.486 240.625 179.41 240.742 179.327 240.854C179.325 240.857 179.322 240.86 179.32 240.863C179.318 240.867 179.316 240.87 179.314 240.873C179.267 240.939 179.221 241 179.171 241.061C179.157 241.078 179.144 241.096 179.131 241.115C179.048 241.235 178.958 241.349 178.861 241.457C178.852 241.467 178.844 241.476 178.836 241.486C178.698 241.655 178.55 241.816 178.394 241.968L178.39 241.972C178.195 242.165 177.99 242.348 177.777 242.52C177.773 242.523 177.769 242.526 177.766 242.529C176.346 243.715 174.584 244.414 172.737 244.524H136.733C137.354 244.125 137.933 243.66 138.459 243.133L138.482 243.11L138.485 243.107C140.294 241.279 141.351 238.838 141.448 236.268C141.448 236.258 141.448 236.248 141.448 236.238V235.866L141.448 235.86C141.421 232.276 139.556 229.091 136.706 227.261ZM133.01 244.345C134.641 243.989 136.135 243.172 137.316 241.991L137.336 241.97C137.336 241.97 137.337 241.969 137.337 241.969C138.858 240.432 139.747 238.382 139.832 236.222V235.869C139.797 231.502 136.527 227.839 132.191 227.309C131.787 227.26 131.482 226.917 131.481 226.51C131.48 226.102 131.782 225.757 132.187 225.706C132.456 225.671 132.717 225.658 132.95 225.647C133.043 225.635 133.137 225.633 133.231 225.64C133.243 225.64 133.256 225.64 133.269 225.641C133.321 225.639 133.373 225.64 133.424 225.644L172.277 225.644C172.519 225.644 172.801 225.644 173.093 225.679H173.132C173.143 225.679 173.154 225.679 173.165 225.68C173.176 225.679 173.187 225.679 173.198 225.679H173.244C173.283 225.679 173.322 225.682 173.36 225.687L173.82 225.754C174.162 225.804 174.501 225.876 174.834 225.97C174.963 225.997 175.101 226.033 175.227 226.072C175.584 226.182 175.935 226.31 176.278 226.457C176.577 226.583 176.871 226.73 177.135 226.87L177.137 226.871C177.435 227.029 177.723 227.205 177.999 227.399C178.167 227.513 178.346 227.635 178.525 227.779C178.55 227.798 178.578 227.821 178.609 227.845C178.75 227.956 178.942 228.108 179.109 228.256C179.22 228.355 179.307 228.442 179.377 228.513C179.386 228.522 179.395 228.531 179.403 228.54C179.461 228.599 179.499 228.637 179.541 228.676C179.556 228.69 179.571 228.704 179.585 228.719L179.589 228.724C179.747 228.892 179.92 229.077 180.086 229.277C180.122 229.314 180.149 229.346 180.165 229.364C180.171 229.372 180.175 229.376 180.177 229.379C180.179 229.382 180.181 229.383 180.182 229.385C180.201 229.405 180.22 229.426 180.237 229.448L180.473 229.751C180.478 229.757 180.483 229.764 180.488 229.77C180.778 230.166 181.042 230.579 181.28 231.008C181.282 231.012 181.285 231.016 181.287 231.021C181.52 231.459 181.726 231.911 181.904 232.374C181.906 232.38 181.908 232.385 181.91 232.39C182.195 233.184 182.387 234.009 182.479 234.847C182.483 234.877 182.484 234.906 182.484 234.936C182.484 234.996 182.488 235.03 182.495 235.089C182.501 235.135 182.508 235.196 182.516 235.295C182.518 235.318 182.519 235.34 182.519 235.362V235.446C182.525 235.589 182.525 235.743 182.525 235.874V235.881C182.527 236.21 182.511 236.539 182.479 236.866V236.891C182.479 236.933 182.475 236.975 182.469 237.017C182.462 237.063 182.454 237.114 182.446 237.166C182.433 237.249 182.42 237.335 182.407 237.416C182.401 237.478 182.391 237.538 182.376 237.598C182.353 237.774 182.321 237.949 182.278 238.122C182.206 238.435 182.111 238.768 182.015 239.071L182.012 239.079L182.009 239.087C181.945 239.283 181.873 239.501 181.788 239.722C181.773 239.76 181.756 239.797 181.736 239.832C181.729 239.844 181.72 239.862 181.701 239.904C181.698 239.912 181.69 239.932 181.681 239.95C181.677 239.961 181.673 239.971 181.669 239.978C181.66 239.999 181.649 240.025 181.635 240.053C181.544 240.271 181.44 240.485 181.325 240.692C181.214 240.91 181.088 241.119 180.948 241.319C180.852 241.49 180.746 241.655 180.629 241.812C180.573 241.89 180.512 241.973 180.442 242.06C180.329 242.222 180.207 242.376 180.076 242.523C179.903 242.733 179.719 242.934 179.524 243.124C179.292 243.353 179.05 243.569 178.797 243.774C177.106 245.185 175.005 246.014 172.806 246.139C172.791 246.14 172.776 246.14 172.761 246.14H133.398C133.011 246.14 132.617 246.118 132.226 246.082C131.814 246.044 131.498 245.701 131.493 245.288C131.487 244.875 131.794 244.524 132.205 244.475C132.418 244.449 132.63 244.413 132.839 244.365C132.896 244.352 132.953 244.346 133.01 244.345Z" fill="#2E3E5C"/>
<path fill-rule="evenodd" clip-rule="evenodd" d="M188.06 246.238C185.33 246.817 183.368 249.223 183.357 252.021C183.375 255.009 185.605 257.52 188.57 257.892C188.83 257.925 189.058 258.081 189.182 258.313C189.306 258.544 189.31 258.821 189.192 259.055L189.175 259.09C189.05 259.34 188.804 259.508 188.525 259.533C188.239 259.559 187.957 259.568 187.68 259.568H149.112C147.12 259.567 145.211 258.773 143.806 257.361C142.947 256.503 142.31 255.448 141.951 254.288L141.95 254.287C141.727 253.563 141.618 252.808 141.626 252.05C141.636 247.906 144.991 244.547 149.136 244.532L149.138 244.532L187.699 244.532C187.866 244.532 188.092 244.532 188.314 244.557C188.328 244.556 188.343 244.555 188.357 244.555H188.415C188.832 244.555 189.181 244.874 189.219 245.289C189.258 245.705 188.973 246.082 188.563 246.158C188.447 246.18 188.393 246.187 188.355 246.192C188.316 246.197 188.294 246.2 188.244 246.213C188.184 246.228 188.122 246.236 188.06 246.238ZM184.572 246.149H149.14C145.883 246.16 143.248 248.801 143.242 252.057L143.242 252.066C143.235 252.657 143.32 253.245 143.494 253.81C143.777 254.719 144.276 255.546 144.949 256.219L144.951 256.22C146.053 257.328 147.551 257.951 149.113 257.952H184.652C182.88 256.567 181.754 254.416 181.741 252.026L181.741 252.019C181.749 249.671 182.836 247.54 184.572 246.149Z" fill="#2E3E5C"/>
<path fill-rule="evenodd" clip-rule="evenodd" d="M133.052 246.149C128.495 246.149 125.935 248.896 125.935 252.056L125.935 252.058C125.933 253.618 126.552 255.116 127.656 256.218L127.657 256.219C128.687 257.249 130.137 257.952 133.052 257.952H144.457C142.717 256.576 141.6 254.446 141.6 252.056H142.408L141.6 252.055C141.605 249.659 142.726 247.526 144.472 246.149H133.052ZM143.217 252.057C143.222 248.8 145.858 246.16 149.115 246.149C149.561 246.147 149.921 245.785 149.921 245.339C149.92 244.893 149.558 244.532 149.112 244.532H133.052C127.784 244.532 124.32 247.832 124.319 252.055C124.316 254.046 125.106 255.956 126.514 257.362C126.514 257.362 126.514 257.362 126.514 257.362L127.086 256.79L126.515 257.362C126.515 257.362 126.514 257.362 126.514 257.362C127.926 258.774 129.834 259.568 133.052 259.568H149.112C149.559 259.568 149.921 259.206 149.921 258.76C149.921 258.314 149.559 257.952 149.112 257.952C145.857 257.952 143.217 255.313 143.217 252.057Z" fill="#2E3E5C"/>
<path fill-rule="evenodd" clip-rule="evenodd" d="M188.901 259.568H187.737C187.725 259.568 187.712 259.568 187.699 259.568C187.693 259.568 187.687 259.568 187.68 259.568C187.234 259.568 186.872 259.206 186.872 258.76C186.872 258.314 187.234 257.952 187.68 257.952C187.859 257.952 188.01 257.951 188.149 257.944C188.173 257.941 188.194 257.939 188.206 257.938L188.207 257.938C188.23 257.936 188.258 257.934 188.284 257.932C188.287 257.931 188.29 257.931 188.292 257.931C188.322 257.928 188.351 257.926 188.38 257.923C188.483 257.914 188.583 257.925 188.676 257.952C188.742 257.952 188.817 257.952 188.901 257.952V258.057C189.094 258.185 189.229 258.395 189.256 258.643C189.289 258.951 189.143 259.238 188.901 259.4V259.568ZM188.901 258.322V259.181C188.909 259.169 188.917 259.156 188.924 259.143C189.006 258.995 189.056 258.793 189.005 258.572C188.982 258.471 188.943 258.389 188.901 258.322Z" fill="#2E3E5C"/>
<path fill-rule="evenodd" clip-rule="evenodd" d="M186.872 245.335C186.872 244.888 187.234 244.527 187.68 244.527H188.901C189.347 244.527 189.708 244.887 189.71 245.332C189.711 245.777 189.352 246.14 188.907 246.143C188.771 246.144 188.665 246.145 188.583 246.147C188.513 246.167 188.439 246.177 188.363 246.177C188.34 246.177 188.314 246.177 188.287 246.176C188.172 246.174 188.062 246.165 187.974 246.159C187.97 246.158 187.966 246.158 187.962 246.158C187.842 246.149 187.757 246.143 187.68 246.143C187.234 246.143 186.872 245.781 186.872 245.335Z" fill="#2E3E5C"/>
<path opacity="0.54" d="M20.9997 233.499L1.00876 182.286C0.506901 180.279 0.957929 178.152 2.23144 176.52C3.50495 174.889 5.45893 173.935 7.52843 173.935H86.9452C90.615 173.934 93.8071 176.449 94.6657 180.017L116.552 231.224C117.032 233.226 116.569 235.338 115.294 236.955C114.019 238.572 112.074 239.515 110.015 239.515H28.6972C25.0546 239.514 21.8803 237.034 20.9997 233.499Z" fill="white"/>
<path d="M20.9997 233.499L1.00876 182.286C0.506901 180.279 0.957929 178.152 2.23144 176.52C3.50495 174.889 5.45893 173.935 7.52843 173.935H86.9452C90.615 173.934 93.8071 176.449 94.6657 180.017L116.552 231.224C117.032 233.226 116.569 235.338 115.294 236.955C114.019 238.572 112.074 239.515 110.015 239.515H28.6972C25.0546 239.514 21.8803 237.034 20.9997 233.499Z" fill="#D93A49"/>
<path fill-rule="evenodd" clip-rule="evenodd" d="M93.88 180.206C93.1088 177.001 90.2417 174.743 86.9453 174.743H7.52856C7.52852 174.743 7.5286 174.743 7.52856 174.743C5.70791 174.744 3.98879 175.583 2.86841 177.018C1.75824 178.44 1.35852 180.29 1.78086 182.042L21.7525 233.205C21.765 233.237 21.7755 233.27 21.7839 233.304C22.5747 236.478 25.4257 238.706 28.6972 238.707C28.6972 238.707 28.6972 238.707 28.6972 238.707H110.015C111.826 238.707 113.538 237.877 114.659 236.455C115.767 235.05 116.179 233.219 115.781 231.477L93.9226 180.335C93.9049 180.293 93.8906 180.25 93.88 180.206ZM95.4348 179.76C94.465 175.865 90.9653 173.126 86.9452 173.127C86.9451 173.127 86.9452 173.127 86.9452 173.127H7.52844C5.21013 173.127 3.02111 174.196 1.59449 176.023C0.16787 177.85 -0.337384 180.233 0.224812 182.482C0.233125 182.516 0.243545 182.548 0.25601 182.58L20.2286 233.746C21.2167 237.613 24.7012 240.323 28.6971 240.323H110.014C110.014 240.323 110.014 240.323 110.014 240.323C112.321 240.323 114.501 239.267 115.929 237.455C117.357 235.644 117.876 233.278 117.337 231.035C117.327 230.991 117.312 230.948 117.295 230.907L95.4348 179.76Z" fill="#2E3E5C"/>
<path d="M23.9198 231.426L5.48963 184.178C5.02605 182.327 5.44082 180.366 6.61408 178.86C7.78733 177.355 9.58835 176.474 11.4967 176.472H84.7508C88.1364 176.473 91.0806 178.793 91.8724 182.085L112.062 229.312C112.506 231.159 112.078 233.108 110.902 234.6C109.727 236.092 107.932 236.963 106.032 236.963H31.0269C27.6687 236.965 24.7396 234.682 23.9198 231.426Z" fill="#D93A49"/>
<path d="M79.4579 185.16C78.4875 183.7 76.9007 183.052 75.9101 183.72C74.9195 184.389 74.9051 186.096 75.8756 187.556C76.0285 187.779 76.2 187.988 76.3882 188.181L69.1889 203.377C68.037 202.611 66.7786 202.421 65.8743 203.026C65.2833 203.456 64.9131 204.126 64.8635 204.855L59.945 203.193L55.6456 201.753L54.2403 201.292C54.0641 200.764 53.8192 200.262 53.5117 199.798C52.1467 197.748 49.9178 196.838 48.5269 197.762C47.136 198.686 47.1216 201.051 48.4492 203.086L40.2679 214.268C38.4825 212.803 36.3774 212.351 34.9203 213.318C32.939 214.64 32.9045 218.081 34.8541 221.007C34.9318 221.122 35.0211 221.22 35.1017 221.329L29.6389 228.794L29.5899 228.866C29.1706 229.431 29.0974 230.182 29.3997 230.817C29.7019 231.453 30.3302 231.87 31.0334 231.901C31.7365 231.933 32.3996 231.574 32.7576 230.968L37.6157 223.656C39.1477 224.546 40.7834 224.716 41.9727 223.921C43.8676 222.66 43.9568 219.469 42.2607 216.636L50.1079 204.791C51.2598 205.577 52.5441 205.779 53.4599 205.171C53.9719 204.811 54.3207 204.262 54.4303 203.645L55.0063 203.809L59.3806 205.004L64.9787 206.513C65.1489 207.184 65.4312 207.821 65.8139 208.397C67.176 210.444 69.4077 211.357 70.7986 210.433C72.1895 209.508 72.2068 207.098 70.8447 205.05C70.6436 204.753 70.4182 204.473 70.1709 204.212L77.0217 188.722C77.8482 189.298 78.7495 189.428 79.4147 188.993C80.4198 188.351 80.4342 186.623 79.4579 185.16Z" fill="white"/>
<path d="M27.3351 185.998H16.7234C15.7258 186.002 14.8209 185.414 14.4196 184.501C14.3591 184.364 14.3268 184.216 14.3246 184.066C14.3309 183.464 14.8198 182.979 15.4218 182.977H26.7074C26.1832 183.873 26.4712 185.117 27.3351 185.998Z" fill="#D0DBEA"/>
<path d="M34.2061 184.91C34.2029 185.511 33.7157 185.997 33.1147 185.998H27.3351C26.4539 185.117 26.1832 183.873 26.716 182.977H31.8131C32.8086 182.972 33.7129 183.556 34.1168 184.466C34.1764 184.607 34.2067 184.757 34.2061 184.91Z" fill="#D93A49"/>
<path d="M31.551 185.998C31.52 186.056 31.4854 186.112 31.4473 186.165C30.6871 187.199 29.0457 187.297 27.77 186.364C27.6172 186.254 27.4737 186.132 27.3409 185.998C26.4597 185.117 26.189 183.873 26.7217 182.977C26.7506 182.918 26.7853 182.862 26.8254 182.81C27.577 181.771 29.2185 181.682 30.4942 182.606C30.6492 182.717 30.7947 182.842 30.929 182.977C31.8044 183.862 32.0751 185.094 31.551 185.998Z" fill="white"/>
<path d="M36.8756 191.573C36.8709 192.176 36.381 192.662 35.7784 192.662H24.6368C25.1753 191.758 24.9075 190.525 24.0234 189.641H34.4883C35.4859 189.637 36.3908 190.225 36.7921 191.139C36.8487 191.276 36.877 191.424 36.8756 191.573Z" fill="#D93A49"/>
<path d="M24.6368 192.671H19.3958C18.4002 192.676 17.4959 192.092 17.092 191.182C17.0316 191.043 16.9993 190.893 16.997 190.741C16.9954 190.452 17.1095 190.174 17.3139 189.969C17.5183 189.764 17.7961 189.649 18.0855 189.65H24.0235C24.9075 190.525 25.1753 191.758 24.6368 192.671Z" fill="#D0DBEA"/>
<path d="M24.6368 192.671C24.6129 192.73 24.5809 192.787 24.5418 192.838C23.7902 193.88 22.1459 193.969 20.8702 193.045C20.7124 192.931 20.5632 192.806 20.4238 192.671C19.5599 191.789 19.2719 190.554 19.8047 189.65C19.8329 189.591 19.8677 189.536 19.9083 189.486C20.6657 188.449 22.3071 188.354 23.5857 189.284C23.7368 189.395 23.8793 189.517 24.0119 189.65C24.9075 190.525 25.1753 191.758 24.6368 192.671Z" fill="white"/>
<path d="M28.3488 199.294H21.6793C20.6838 199.297 19.7804 198.712 19.3756 197.802C19.3151 197.665 19.2827 197.517 19.2805 197.367C19.2821 196.762 19.7724 196.272 20.3777 196.27H27.7152C27.2026 197.16 27.4733 198.395 28.3488 199.294Z" fill="#D93A49"/>
<path d="M39.1592 198.197C39.156 198.797 38.6678 199.281 38.0678 199.28H28.3488C27.4848 198.395 27.1969 197.16 27.7267 196.256H36.7719C37.7649 196.255 38.6639 196.843 39.0613 197.753C39.1238 197.893 39.1571 198.044 39.1592 198.197Z" fill="#D0DBEA"/>
<path d="M32.556 199.294C32.5277 199.352 32.493 199.407 32.4523 199.458C31.7007 200.501 30.0593 200.59 28.7836 199.665C28.6305 199.551 28.4852 199.427 28.3488 199.294C27.4848 198.41 27.1969 197.174 27.7267 196.27C27.7571 196.213 27.7918 196.158 27.8304 196.106C28.5907 195.072 30.2321 194.98 31.5078 195.905C31.6592 196.016 31.8026 196.138 31.9369 196.27C32.8066 197.14 33.0945 198.381 32.556 199.294Z" fill="white"/>
<path d="M71.4725 230.493H64.8002C63.8046 230.496 62.9012 229.911 62.4964 229.001C62.4336 228.865 62.4003 228.716 62.3985 228.566C62.4001 227.961 62.8904 227.471 63.4957 227.469H70.8361C70.3263 228.379 70.597 229.609 71.4725 230.493Z" fill="#D93A49"/>
<path d="M97.9514 229.41C97.9507 229.698 97.8356 229.974 97.6314 230.177C97.4273 230.38 97.1508 230.494 96.8629 230.493H71.4725C70.6086 229.609 70.3206 228.373 70.8505 227.469H95.5642C96.5572 227.469 97.4561 228.056 97.8535 228.966C97.916 229.106 97.9493 229.257 97.9514 229.41Z" fill="#D0DBEA"/>
<path d="M75.6797 230.493C75.6515 230.551 75.6167 230.606 75.5761 230.657C74.8245 231.699 73.183 231.789 71.9073 230.864C71.7536 230.751 71.6083 230.627 71.4725 230.493C70.6086 229.609 70.3206 228.373 70.8505 227.469C70.8808 227.412 70.9155 227.357 70.9541 227.305C71.7144 226.271 73.3558 226.179 74.6315 227.103C74.7829 227.215 74.9263 227.337 75.0606 227.469C75.9418 228.353 76.2125 229.594 75.6797 230.493Z" fill="white"/>
</svg>
